<svg xmlns="http://www.w3.org/2000/svg" viewBox="0 0 1200 460" role="img" aria-labelledby="title description">
  <title id="title">Fishknowsss — Yu An</title>
  <desc id="description">UI/UX, interaction, product systems, and new media practice.</desc>
  <defs>
    <linearGradient id="background" x1="0" y1="0" x2="1" y2="1">
      <stop offset="0" stop-color="#07090d"/>
      <stop offset="0.58" stop-color="#0b0e13"/>
      <stop offset="1" stop-color="#10141a"/>
    </linearGradient>
    <radialGradient id="signalGlow" cx="50%" cy="50%" r="50%">
      <stop offset="0" stop-color="#52e5d5" stop-opacity="0.32"/>
      <stop offset="1" stop-color="#52e5d5" stop-opacity="0"/>
    </radialGradient>
    <radialGradient id="coralGlow" cx="50%" cy="50%" r="50%">
      <stop offset="0" stop-color="#ff796c" stop-opacity="0.22"/>
      <stop offset="1" stop-color="#ff796c" stop-opacity="0"/>
    </radialGradient>
    <linearGradient id="signalLine" x1="0" y1="0" x2="1" y2="0">
      <stop offset="0" stop-color="#52e5d5" stop-opacity="0"/>
      <stop offset="0.4" stop-color="#52e5d5" stop-opacity="0.9"/>
      <stop offset="1" stop-color="#ff796c" stop-opacity="0.7"/>
    </linearGradient>
    <filter id="softBlur" x="-40%" y="-40%" width="180%" height="180%">
      <feGaussianBlur stdDeviation="34"/>
    </filter>
    <style>
      .sans { font-family: ui-sans-serif, system-ui, -apple-system, BlinkMacSystemFont, "Segoe UI", sans-serif; }
      .serif { font-family: "Iowan Old Style", "Palatino Linotype", "Book Antiqua", Georgia, serif; }
      .eyebrow { font-size: 14px; font-weight: 650; letter-spacing: 3.6px; }
      .display { font-size: 57px; font-weight: 500; letter-spacing: -1.7px; }
      .meta { font-size: 16px; font-weight: 520; letter-spacing: 0.7px; }
      .label { font-size: 12px; font-weight: 650; letter-spacing: 1.7px; }
      .node { font-size: 11px; font-weight: 650; letter-spacing: 1.4px; }
    </style>
  </defs>

  <rect width="1200" height="460" rx="30" fill="url(#background)"/>
  <circle cx="1030" cy="92" r="190" fill="url(#signalGlow)" filter="url(#softBlur)"/>
  <circle cx="1135" cy="392" r="150" fill="url(#coralGlow)" filter="url(#softBlur)"/>

  <g opacity="0.26" fill="none" stroke="#d8fff9">
    <circle cx="988" cy="208" r="132" stroke-width="1"/>
    <circle cx="988" cy="208" r="92" stroke-width="1" stroke-dasharray="3 10"/>
    <path d="M838 208 C888 146 931 270 988 208 C1045 146 1088 270 1140 208" stroke="url(#signalLine)" stroke-width="2.4"/>
    <path d="M858 242 C907 190 951 287 1007 235 C1060 186 1098 259 1138 232" stroke="#52e5d5" stroke-opacity="0.46"/>
  </g>

  <g class="sans" fill="#e9eeef">
    <text x="78" y="73" class="eyebrow" fill="#8ff4e8">鱼谙 · YU AN / FISHKNOWSSS</text>
    <text x="78" y="169" class="serif display">Designing between</text>
    <text x="78" y="235" class="serif display" fill="#ffffff">function &amp; perception.</text>
    <text x="81" y="293" class="meta" fill="#aeb9bb">UI/UX · Interaction · Product Engineering · New Media</text>
  </g>

  <g class="sans node" text-anchor="middle">
    <circle cx="988" cy="208" r="26" fill="#0b1517" stroke="#52e5d5" stroke-width="1.5"/>
    <text x="988" y="212" fill="#d8fff9">MAKE</text>
    <circle cx="988" cy="76" r="4" fill="#52e5d5"/>
    <text x="988" y="58" fill="#b9c6c8">INTERFACE</text>
    <circle cx="1120" cy="208" r="4" fill="#ff796c"/>
    <text x="1120" y="191" fill="#b9c6c8">SYSTEM</text>
    <circle cx="988" cy="340" r="4" fill="#52e5d5"/>
    <text x="988" y="366" fill="#b9c6c8">DELIVERY</text>
    <circle cx="856" cy="208" r="4" fill="#ff796c"/>
    <text x="856" y="191" fill="#b9c6c8">MEDIA</text>
  </g>

  <line x1="78" y1="354" x2="730" y2="354" stroke="#d7e2e3" stroke-opacity="0.16"/>
  <g class="sans label" fill="#c8d1d2">
    <text x="78" y="397">DESKTOP SYSTEMS</text>
    <text x="278" y="397">LOCAL-FIRST</text>
    <text x="441" y="397">AI + MEDIA</text>
    <text x="592" y="397">SHIP THE WHOLE FLOW</text>
  </g>
  <g fill="#ff796c">
    <circle cx="253" cy="393" r="2.5"/>
    <circle cx="416" cy="393" r="2.5"/>
    <circle cx="567" cy="393" r="2.5"/>
  </g>
</svg>
