<svg xmlns="http://www.w3.org/2000/svg" viewBox="0 0 1200 460" role="img" aria-labelledby="title description">
  <title id="title">Fishknowsss — 魚諳 / Yu An</title>
  <desc id="description">Designing between function and perception through interface, systems, media, and delivery.</desc>
  <defs>
    <linearGradient id="background" x1="0" y1="0" x2="1" y2="1">
      <stop offset="0" stop-color="#14182A"/>
      <stop offset="0.58" stop-color="#192038"/>
      <stop offset="1" stop-color="#232A46"/>
    </linearGradient>
    <radialGradient id="blueGlow" cx="50%" cy="50%" r="50%">
      <stop offset="0" stop-color="#8EACF0" stop-opacity="0.24"/>
      <stop offset="1" stop-color="#8EACF0" stop-opacity="0"/>
    </radialGradient>
    <radialGradient id="violetGlow" cx="50%" cy="50%" r="50%">
      <stop offset="0" stop-color="#B09AE6" stop-opacity="0.2"/>
      <stop offset="1" stop-color="#B09AE6" stop-opacity="0"/>
    </radialGradient>
    <filter id="softBlur" x="-40%" y="-40%" width="180%" height="180%">
      <feGaussianBlur stdDeviation="32"/>
    </filter>
    <style>
      .sans { font-family: ui-sans-serif, system-ui, -apple-system, BlinkMacSystemFont, "Segoe UI", sans-serif; }
      .serif { font-family: "Iowan Old Style", "Palatino Linotype", "Book Antiqua", Georgia, serif; }
      .identity { font-size: 17px; font-weight: 650; letter-spacing: 3.1px; }
      .display { font-size: 54px; font-weight: 500; letter-spacing: -1.4px; }
      .meta { font-size: 19px; font-weight: 540; letter-spacing: 0.55px; }
      .label { font-size: 15.5px; font-weight: 650; letter-spacing: 1.2px; }
      .field-title { font-size: 21px; font-weight: 680; letter-spacing: 0.8px; }
      .field-meta { font-size: 15.5px; font-weight: 540; letter-spacing: 0.25px; }
      .center-title { font-size: 17px; font-weight: 700; letter-spacing: 0.95px; }
      .center-meta { font-size: 13.5px; font-weight: 560; letter-spacing: 0.25px; }
    </style>
  </defs>

  <rect width="1200" height="460" rx="28" fill="url(#background)"/>
  <circle cx="1015" cy="92" r="205" fill="url(#blueGlow)" filter="url(#softBlur)"/>
  <circle cx="1132" cy="386" r="162" fill="url(#violetGlow)" filter="url(#softBlur)"/>

  <g class="sans" fill="#F4F6FF">
    <text x="78" y="70" class="identity" fill="#AAB9EE">FISHKNOWSSS / 魚諳 · YU AN</text>
    <text x="78" y="163" class="serif display">Designing between</text>
    <text x="78" y="225" class="serif display">function &amp; perception.</text>
    <text x="80" y="286" class="meta" fill="#AAB4D2">UI/UX · Interaction · Product Engineering · New Media</text>
  </g>

  <g class="sans" text-anchor="middle">
    <ellipse cx="982" cy="220" rx="162" ry="132" fill="none" stroke="#52617F" stroke-width="1.2"/>
    <ellipse cx="982" cy="220" rx="126" ry="98" fill="none" stroke="#6E789A" stroke-width="1" stroke-dasharray="3 10"/>
    <ellipse cx="982" cy="220" rx="150" ry="58" fill="none" stroke="#99C3E7" stroke-width="1.8" stroke-opacity="0.68" transform="rotate(56 982 220)"/>
    <ellipse cx="982" cy="220" rx="150" ry="58" fill="none" stroke="#C5A0CD" stroke-width="1.7" stroke-opacity="0.58" transform="rotate(-56 982 220)"/>
    <path d="M820 220 C858 131 919 120 982 220 C1045 320 1106 309 1144 220" fill="none" stroke="#8EACF0" stroke-width="2.35" stroke-opacity="0.88"/>
    <path d="M820 220 C858 309 919 320 982 220 C1045 120 1106 131 1144 220" fill="none" stroke="#B09AE6" stroke-width="2.35" stroke-opacity="0.86"/>
    <path d="M846 220 C893 177 935 174 982 220 C1029 266 1071 263 1118 220" fill="none" stroke="#8499DB" stroke-width="1.15" stroke-opacity="0.72"/>

    <g fill="#8EACF0" fill-opacity="0.58">
      <circle cx="894" cy="119" r="2.6"/>
      <circle cx="1072" cy="126" r="2.2"/>
      <circle cx="868" cy="286" r="2.3"/>
      <circle cx="1091" cy="293" r="2.7"/>
    </g>
    <g fill="#B09AE6" fill-opacity="0.54">
      <circle cx="922" cy="315" r="2.4"/>
      <circle cx="1040" cy="112" r="2.5"/>
      <circle cx="1120" cy="252" r="2.1"/>
      <circle cx="845" cy="183" r="2.2"/>
    </g>

    <path d="M898 220 C926 181 1038 181 1066 220 C1038 259 926 259 898 220 Z" fill="#202842" stroke="#AAB9EE" stroke-width="1.5"/>
    <text x="982" y="216" class="center-title" fill="#F4F6FF">DESIGN × BUILD</text>
    <text x="982" y="237" class="center-meta" fill="#C8D1EC">research · systems · media</text>

    <circle cx="982" cy="80" r="17" fill="#283351"/>
    <circle cx="982" cy="80" r="6.5" fill="#8EACF0"/>
    <text x="982" y="38" class="field-title" fill="#DCE4FF">INTERFACE STRUCTURE</text>
    <text x="982" y="58" class="field-meta" fill="#AAB4D2">information · states · interaction</text>

    <circle cx="832" cy="220" r="17" fill="#25344A"/>
    <circle cx="832" cy="220" r="6.5" fill="#99C3E7"/>
    <text x="832" y="170" class="field-title" fill="#D7EAFA">MEDIA EXPERIENCE</text>
    <text x="832" y="190" class="field-meta" fill="#AAB4D2">image · sound · motion</text>

    <circle cx="1132" cy="220" r="17" fill="#312D50"/>
    <circle cx="1132" cy="220" r="6.5" fill="#B09AE6"/>
    <text x="1080" y="170" class="field-title" fill="#E7DFFC">SYSTEM BEHAVIOR</text>
    <text x="1080" y="190" class="field-meta" fill="#AAB4D2">data · states · reliability</text>

    <circle cx="982" cy="360" r="17" fill="#3B2E45"/>
    <circle cx="982" cy="360" r="6.5" fill="#C5A0CD"/>
    <text x="982" y="393" class="field-title" fill="#F0DDEE">PRODUCT DELIVERY</text>
    <text x="982" y="413" class="field-meta" fill="#AAB4D2">build · package · verify</text>
  </g>

  <line x1="78" y1="350" x2="730" y2="350" stroke="#52617F"/>
  <g class="sans label" fill="#C8D1EC">
    <text x="78" y="397">INTERACTION RESEARCH</text>
    <text x="330" y="397">PRODUCT SYSTEMS</text>
    <text x="520" y="397">AUDIOVISUAL MEDIA</text>
  </g>
  <g>
    <circle cx="320" cy="393" r="2.8" fill="#99C3E7"/>
    <circle cx="510" cy="393" r="2.8" fill="#B09AE6"/>
  </g>
</svg>
